<?xml version="1.0" encoding="UTF-8"?>
<svg xmlns="http://www.w3.org/2000/svg" xmlns:xlink="http://www.w3.org/1999/xlink" width="113.784pt" height="113.784pt" viewBox="0 0 113.784 113.784">
<defs>
<clipPath id="clip-0">
<path clip-rule="nonzero" d="M 0 56 L 113.785156 56 L 113.785156 58 L 0 58 Z M 0 56 "/>
</clipPath>
<clipPath id="clip-1">
<path clip-rule="nonzero" d="M 56 0 L 58 0 L 58 113.785156 L 56 113.785156 Z M 56 0 "/>
</clipPath>
</defs>
<path fill="none" stroke-width="0.3985" stroke-linecap="butt" stroke-linejoin="miter" stroke="rgb(50%, 50%, 50%)" stroke-opacity="1" stroke-miterlimit="10" d="M -53.856844 -45.354094 L 53.858 -45.354094 M -53.856844 -22.678312 L 53.858 -22.678312 M -53.856844 0.001375 L 53.858 0.001375 M -53.856844 22.677156 L 53.858 22.677156 M -53.856844 45.356844 L 53.858 45.356844 M -45.356844 -53.858 L -45.356844 53.856844 M -22.677156 -53.858 L -22.677156 53.856844 M -0.001375 -53.858 L -0.001375 53.856844 M 22.678312 -53.858 L 22.678312 53.856844 M 45.354094 -53.858 L 45.354094 53.856844 " transform="matrix(1, 0, 0, -1, 56.892, 56.892)"/>
<g clip-path="url(#clip-0)">
<path fill="none" stroke-width="0.3985" stroke-linecap="butt" stroke-linejoin="miter" stroke="rgb(0%, 0%, 0%)" stroke-opacity="1" stroke-miterlimit="10" d="M -56.692781 0.001375 L 56.693937 0.001375 " transform="matrix(1, 0, 0, -1, 56.892, 56.892)"/>
</g>
<g clip-path="url(#clip-1)">
<path fill="none" stroke-width="0.3985" stroke-linecap="butt" stroke-linejoin="miter" stroke="rgb(0%, 0%, 0%)" stroke-opacity="1" stroke-miterlimit="10" d="M -0.001375 -56.693937 L -0.001375 56.692781 " transform="matrix(1, 0, 0, -1, 56.892, 56.892)"/>
</g>
<path fill="none" stroke-width="0.79701" stroke-linecap="butt" stroke-linejoin="miter" stroke="rgb(0%, 0%, 100%)" stroke-opacity="1" stroke-miterlimit="10" d="M -5.669344 5.669344 L 15.592375 -31.154875 " transform="matrix(1, 0, 0, -1, 56.892, 56.892)"/>
<path fill="none" stroke-width="0.79701" stroke-linecap="butt" stroke-linejoin="miter" stroke="rgb(0%, 0%, 100%)" stroke-opacity="1" stroke-miterlimit="10" d="M 15.592375 -31.154875 L 22.561125 -18.018156 " transform="matrix(1, 0, 0, -1, 56.892, 56.892)"/>
<path fill="none" stroke-width="0.79701" stroke-linecap="butt" stroke-linejoin="miter" stroke="rgb(0%, 0%, 100%)" stroke-opacity="1" stroke-miterlimit="10" d="M 22.561125 -18.018156 L 34.287687 -8.873625 " transform="matrix(1, 0, 0, -1, 56.892, 56.892)"/>
<path fill="none" stroke-width="0.79701" stroke-linecap="butt" stroke-linejoin="miter" stroke="rgb(0%, 0%, 100%)" stroke-opacity="1" stroke-miterlimit="10" d="M 34.287687 -8.873625 L -5.669344 5.669344 " transform="matrix(1, 0, 0, -1, 56.892, 56.892)"/>
</svg>
